HIERARCHY
ROOT Hips
{
  OFFSET 395.892 92.2501 280.516
  CHANNELS 6 Xposition Yposition Zposition Zrotation Xrotation Yrotation
  JOINT RightUpLeg
  {
    OFFSET -9.34219 -1.61394 0.0396188
    CHANNELS 3 Zrotation Xrotation Yrotation
    JOINT RightLeg
    {
      OFFSET -0.107964 -41.8835 0.0730785
      CHANNELS 3 Zrotation Xrotation Yrotation
      JOINT RightFoot
      {
        OFFSET -0.619179 -41.064 0.280306
        CHANNELS 3 Zrotation Xrotation Yrotation
        End Site
        {
          OFFSET 0 -7.69 17.5
        }
      }
    }
  }
  JOINT LeftUpLeg
  {
    OFFSET 9.31146 -1.617 0.0207408
    CHANNELS 3 Zrotation Xrotation Yrotation
    JOINT LeftLeg
    {
      OFFSET 0.0958351 -41.8678 -0.0740685
      CHANNELS 3 Zrotation Xrotation Yrotation
      JOINT LeftFoot
      {
        OFFSET 0.374571 -42.2747 -1.32837
        CHANNELS 3 Zrotation Xrotation Yrotation
        End Site
        {
          OFFSET 0 -7.69 17.5
        }
      }
    }
  }
  JOINT Spine
  {
    OFFSET -0.02688 14.3055 0.0274126
    CHANNELS 3 Zrotation Xrotation Yrotation
    JOINT Spine1
    {
      OFFSET -0.0184541 9.71448 0.00577758
      CHANNELS 3 Zrotation Xrotation Yrotation
      JOINT Spine2
      {
        OFFSET 0.040126 10.1152 -0.013275
        CHANNELS 3 Zrotation Xrotation Yrotation
        JOINT Spine3
        {
          OFFSET -0.00182381 9.71267 -0.0158471
          CHANNELS 3 Zrotation Xrotation Yrotation
          JOINT Neck
          {
            OFFSET 0.0702516 10.3806 -0.0673705
            CHANNELS 3 Zrotation Xrotation Yrotation
            JOINT Head
            {
              OFFSET -0.0630032 9.45136 -0.0589094
              CHANNELS 3 Zrotation Xrotation Yrotation
              End Site
              {
                OFFSET 0 15.95 0
              }
            }
          }
          JOINT RightShoulder
          {
            OFFSET -3.19585 6.86803 0.0812735
            CHANNELS 3 Zrotation Xrotation Yrotation
            JOINT RightArm
            {
              OFFSET -12.7354 -0.0493629 0.0382868
              CHANNELS 3 Zrotation Xrotation Yrotation
              JOINT RightForeArm
              {
                OFFSET -26.6932 0.0572621 -0.00196054
                CHANNELS 3 Zrotation Xrotation Yrotation
                JOINT RightHand
                {
                  OFFSET -25.9952 -0.0609162 -0.09405
                  CHANNELS 3 Zrotation Xrotation Yrotation
                  JOINT RightHandThumb1
                  {
                    OFFSET -2.48905 0.190105 3.12053
                    CHANNELS 3 Zrotation Xrotation Yrotation
                    JOINT RightHandThumb2
                    {
                      OFFSET -3.68274 0 0
                      CHANNELS 3 Zrotation Xrotation Yrotation
                      JOINT RightHandThumb3
                      {
                        OFFSET -2.55832 0 0
                        CHANNELS 3 Zrotation Xrotation Yrotation
                        End Site
                        {
                          OFFSET -2.194 0 0
                        }
                      }
                    }
                  }
                  JOINT RightInHandIndex
                  {
                    OFFSET -3.22368 0.508421 1.97842
                    CHANNELS 3 Zrotation Xrotation Yrotation
                    JOINT RightHandIndex1
                    {
                      OFFSET -5.21684 -0.091368 0.999158
                      CHANNELS 3 Zrotation Xrotation Yrotation
                      JOINT RightHandIndex2
                      {
                        OFFSET -3.61937 0 0
                        CHANNELS 3 Zrotation Xrotation Yrotation
                        JOINT RightHandIndex3
                        {
                          OFFSET -2.0521 0 0
                          CHANNELS 3 Zrotation Xrotation Yrotation
                          End Site
                          {
                            OFFSET -1.805 0 0
                          }
                        }
                      }
                    }
                  }
                  JOINT RightInHandMiddle
                  {
                    OFFSET -3.38211 0.517263 0.756737
                    CHANNELS 3 Zrotation Xrotation Yrotation
                    JOINT RightHandMiddle1
                    {
                      OFFSET -5.17411 -0.084 0.313895
                      CHANNELS 3 Zrotation Xrotation Yrotation
                      JOINT RightHandMiddle2
                      {
                        OFFSET -3.94947 0 0
                        CHANNELS 3 Zrotation Xrotation Yrotation
                        JOINT RightHandMiddle3
                        {
                          OFFSET -2.47579 0 0
                          CHANNELS 3 Zrotation Xrotation Yrotation
                          End Site
                          {
                            OFFSET -1.975 0 0
                          }
                        }
                      }
                    }
                  }
                  JOINT RightInHandRing
                  {
                    OFFSET -3.36516 0.537895 -0.128947
                    CHANNELS 3 Zrotation Xrotation Yrotation
                    JOINT RightHandRing1
                    {
                      OFFSET -4.63474 -0.022105 -0.478947
                      CHANNELS 3 Zrotation Xrotation Yrotation
                      JOINT RightHandRing2
                      {
                        OFFSET -3.44238 0 0
                        CHANNELS 3 Zrotation Xrotation Yrotation
                        JOINT RightHandRing3
                        {
                          OFFSET -2.3881 0 0
                          CHANNELS 3 Zrotation Xrotation Yrotation
                          End Site
                          {
                            OFFSET -1.857 0 0
                          }
                        }
                      }
                    }
                  }
                  JOINT RightInHandPinky
                  {
                    OFFSET -3.16105 0.469368 -1.20179
                    CHANNELS 3 Zrotation Xrotation Yrotation
                    JOINT RightHandPinky1
                    {
                      OFFSET -4.14105 -0.022105 -1.09053
                      CHANNELS 3 Zrotation Xrotation Yrotation
                      JOINT RightHandPinky2
                      {
                        OFFSET -2.75653 0 0
                        CHANNELS 3 Zrotation Xrotation Yrotation
                        JOINT RightHandPinky3
                        {
                          OFFSET -1.74189 0 0
                          CHANNELS 3 Zrotation Xrotation Yrotation
                          End Site
                          {
                            OFFSET -1.645 0 0
                          }
                        }
                      }
                    }
                  }
                }
              }
            }
          }
          JOINT LeftShoulder
          {
            OFFSET 3.22619 6.92614 -0.0284522
            CHANNELS 3 Zrotation Xrotation Yrotation
            JOINT LeftArm
            {
              OFFSET 12.7394 -0.0545679 0.00613785
              CHANNELS 3 Zrotation Xrotation Yrotation
              JOINT LeftForeArm
              {
                OFFSET 26.5544 -0.166587 0.113242
                CHANNELS 3 Zrotation Xrotation Yrotation
                JOINT LeftHand
                {
                  OFFSET 26.0062 -0.049885 -0.0701344
                  CHANNELS 3 Zrotation Xrotation Yrotation
                  JOINT LeftHandThumb1
                  {
                    OFFSET 2.48905 0.190105 3.12053
                    CHANNELS 3 Zrotation Xrotation Yrotation
                    JOINT LeftHandThumb2
                    {
                      OFFSET 3.68274 0 0
                      CHANNELS 3 Zrotation Xrotation Yrotation
                      JOINT LeftHandThumb3
                      {
                        OFFSET 2.55832 0 0
                        CHANNELS 3 Zrotation Xrotation Yrotation
                        End Site
                        {
                          OFFSET 2.194 0 0
                        }
                      }
                    }
                  }
                  JOINT LeftInHandIndex
                  {
                    OFFSET 3.22368 0.508421 1.97842
                    CHANNELS 3 Zrotation Xrotation Yrotation
                    JOINT LeftHandIndex1
                    {
                      OFFSET 5.21684 -0.091368 0.999158
                      CHANNELS 3 Zrotation Xrotation Yrotation
                      JOINT LeftHandIndex2
                      {
                        OFFSET 3.61937 0 0
                        CHANNELS 3 Zrotation Xrotation Yrotation
                        JOINT LeftHandIndex3
                        {
                          OFFSET 2.0521 0 0
                          CHANNELS 3 Zrotation Xrotation Yrotation
                          End Site
                          {
                            OFFSET 1.805 0 0
                          }
                        }
                      }
                    }
                  }
                  JOINT LeftInHandMiddle
                  {
                    OFFSET 3.38211 0.517263 0.756737
                    CHANNELS 3 Zrotation Xrotation Yrotation
                    JOINT LeftHandMiddle1
                    {
                      OFFSET 5.17411 -0.084 0.313895
                      CHANNELS 3 Zrotation Xrotation Yrotation
                      JOINT LeftHandMiddle2
                      {
                        OFFSET 3.94947 0 0
                        CHANNELS 3 Zrotation Xrotation Yrotation
                        JOINT LeftHandMiddle3
                        {
                          OFFSET 2.47579 0 0
                          CHANNELS 3 Zrotation Xrotation Yrotation
                          End Site
                          {
                            OFFSET 1.975 0 0
                          }
                        }
                      }
                    }
                  }
                  JOINT LeftInHandRing
                  {
                    OFFSET 3.36516 0.537895 -0.128947
                    CHANNELS 3 Zrotation Xrotation Yrotation
                    JOINT LeftHandRing1
                    {
                      OFFSET 4.63474 -0.022105 -0.478947
                      CHANNELS 3 Zrotation Xrotation Yrotation
                      JOINT LeftHandRing2
                      {
                        OFFSET 3.44238 0 0
                        CHANNELS 3 Zrotation Xrotation Yrotation
                        JOINT LeftHandRing3
                        {
                          OFFSET 2.3881 0 0
                          CHANNELS 3 Zrotation Xrotation Yrotation
                          End Site
                          {
                            OFFSET 1.857 0 0
                          }
                        }
                      }
                    }
                  }
                  JOINT LeftInHandPinky
                  {
                    OFFSET 3.16105 0.469368 -1.20179
                    CHANNELS 3 Zrotation Xrotation Yrotation
                    JOINT LeftHandPinky1
                    {
                      OFFSET 4.14105 -0.022105 -1.09053
                      CHANNELS 3 Zrotation Xrotation Yrotation
                      JOINT LeftHandPinky2
                      {
                        OFFSET 2.75653 0 0
                        CHANNELS 3 Zrotation Xrotation Yrotation
                        JOINT LeftHandPinky3
                        {
                          OFFSET 1.74189 0 0
                          CHANNELS 3 Zrotation Xrotation Yrotation
                          End Site
                          {
                            OFFSET 1.645 0 0
                          }
                        }
                      }
                    }
                  }
                }
              }
            }
          }
        }
      }
    }
  }
}
MOTION
Frames:	4
Frame Time:	0.00833333
395.441 87.1648 261.449 29.3541 25.6254 -46.8348 -35.0462 -61.675 -29.3058 3.37236 33.5821 -24.9669 8.9461 -0.990646 21.494 10.7525 -68.9229 -9.4045 -4.37704 37.7987 0.451489 -11.5458 -10.4919 15.2434 7.92217 7.29653 -1.39315 1.96039 1.87165 -0.0996558 3.2393 3.09186 -0.0629225 -0.517956 -0.518905 0.0306268 -0.519106 -0.518064 0.0344194 -9.38522 -9.16651 0.663218 -1.88802 -8.01698 -4.99252 69.6257 20.2261 59.0744 10.347 -33.0058 4.08668 24.5077 -8.5915 -4.86277 28.184 10.7294 19.1592 1.2643e-15 -1.98785e-15 -10 3.51003e-15 1.59028e-15 -10 -9.54166e-15 -6.36111e-15 -6.36111e-15 19.9818 0.871897 2.3964 24 -2.38542e-15 -1.90833e-14 20 0 -0 -9.54166e-15 -6.36111e-15 -6.36111e-15 20 3.18055e-15 -1.90833e-14 24 1.21756e-15 -1.90833e-14 20 -3.18055e-15 -3.18055e-15 -9.54166e-15 -6.36111e-15 -6.36111e-15 19.9748 -1.02565 -2.81938 24 -3.13086e-15 -1.59028e-14 20 -3.18055e-15 -0 -9.54166e-15 -6.36111e-15 -6.36111e-15 19.7815 -3.00948 -8.30515 24 -2.38542e-15 -3.18055e-15 20 0 1.27222e-14 3.14158 -12.7929 -28.8037 -63.8917 38.3279 -54.4037 17.8124 -47.713 6.16046 2.59919 9.55593 -3.78392 -28.184 10.7294 -19.1592 -0 0 10 -1.40204e-16 7.95139e-16 10 -1.98785e-16 1.59028e-15 -2.03754e-15 -19.9818 0.871897 -2.3964 -24 0 -7.95139e-15 -20 1.59028e-15 1.59028e-15 -1.98785e-16 1.59028e-15 -2.03754e-15 -20 -1.59028e-15 1.98785e-15 -24 1.59028e-15 2.38542e-15 -20 7.95139e-16 -1.59028e-15 -1.98785e-16 1.59028e-15 -2.03754e-15 -19.9748 -1.02565 2.81938 -24 1.59028e-15 -3.18055e-15 -20 7.95139e-16 -7.95139e-15 -1.98785e-16 1.59028e-15 -2.03754e-15 -19.7815 -3.00948 8.30515 -24 3.18055e-15 -0 -20 2.38542e-15 -0 
395.459 87.1527 261.45 29.4295 25.4717 -47.166 -34.7875 -61.792 -28.9224 3.34583 33.5396 -24.9293 8.96421 -0.897854 21.5793 11.2717 -68.8123 -8.8334 -4.46524 37.8795 0.512871 -11.5239 -10.6023 15.3611 7.88012 7.3052 -1.44582 1.9492 1.87553 -0.11433 3.22123 3.1004 -0.0879556 -0.526996 -0.519377 0.0451313 -0.528191 -0.518446 0.048986 -9.53242 -9.1547 0.920668 -1.78855 -7.93277 -5.05594 70.1995 19.3077 58.6975 10.6072 -34.6573 5.75649 24.6755 -7.08199 -7.10835 28.184 10.7294 19.1592 1.48487e-14 1.78906e-15 -10 3.79044e-15 3.18055e-15 -10 3.18055e-15 3.18055e-15 -6.36111e-15 19.9818 0.871897 2.3964 24 5.86415e-15 1.90833e-14 20 3.18055e-15 3.49861e-14 3.18055e-15 3.18055e-15 -6.36111e-15 20 -4.77083e-15 2.8625e-14 24 6.06293e-15 2.54444e-14 20 7.95139e-15 2.22639e-14 3.18055e-15 3.18055e-15 -6.36111e-15 19.9748 -1.02565 -2.81938 24 3.62782e-15 2.54444e-14 20 6.36111e-15 2.22639e-14 3.18055e-15 3.18055e-15 -6.36111e-15 19.7815 -3.00948 -8.30515 24 3.77691e-15 1.90833e-14 20 7.95139e-15 1.90833e-14 3.12393 -12.8141 -28.8568 -63.806 38.3404 -54.4644 18.2031 -48.0996 6.5739 2.5425 10.4479 -3.97082 -28.184 10.7294 -19.1592 -2.6688e-15 -3.18055e-15 10 -5.47781e-15 -5.56597e-15 10 -9.93923e-17 -1.59028e-15 -9.93923e-16 -19.9818 0.871897 -2.3964 -24 7.95139e-16 7.95139e-16 -20 7.95139e-16 1.59028e-15 -9.93923e-17 -1.59028e-15 -9.93923e-16 -20 0 -3.57812e-15 -24 7.95139e-16 7.95139e-16 -20 -2.38542e-15 3.18055e-15 -9.93923e-17 -1.59028e-15 -9.93923e-16 -19.9748 -1.02565 2.81938 -24 2.38542e-15 3.18055e-15 -20 3.97569e-15 -0 -9.93923e-17 -1.59028e-15 -9.93923e-16 -19.7815 -3.00948 8.30515 -24 -4.77083e-15 5.56597e-15 -20 -1.59028e-15 4.77083e-15 
395.474 87.1422 261.45 29.499 25.3095 -47.5132 -34.4679 -61.9155 -28.4902 3.294 33.4897 -24.8701 8.97742 -0.805441 21.6631 11.8238 -68.6878 -8.20044 -4.52847 37.9572 0.570254 -11.5149 -10.704 15.4429 7.84262 7.31511 -1.50616 1.93905 1.8805 -0.130792 3.20491 3.11012 -0.115923 -0.53685 -0.519867 0.0608274 -0.538111 -0.518843 0.0647523 -9.69354 -9.14161 1.19939 -1.69453 -7.8357 -5.12804 70.1424 19.3727 58.7248 10.7334 -34.9097 6.11525 24.6321 -7.1272 -6.92064 28.184 10.7294 19.1592 -3.51003e-15 -1.59028e-15 -10 -1.64863e-15 -4.77083e-15 -10 -3.18055e-15 0 3.18055e-15 19.9818 0.871897 2.3964 24 -4.96962e-16 -0 20 -3.18055e-15 -1.27222e-14 -3.18055e-15 0 3.18055e-15 20 -3.18055e-15 -3.18055e-15 24 -4.52235e-15 9.54166e-15 20 1.59028e-15 -9.54166e-15 -3.18055e-15 0 3.18055e-15 19.9748 -1.02565 -2.81938 24 -1.46604e-15 -3.18055e-15 20 -4.77083e-15 -1.27222e-14 -3.18055e-15 0 3.18055e-15 19.7815 -3.00948 -8.30515 24 -5.96354e-16 3.18055e-15 20 3.18055e-15 -6.36111e-15 3.09175 -12.8304 -28.9121 -63.709 38.3573 -54.5213 18.5842 -48.3891 6.97288 2.47771 11.2477 -4.14741 -28.184 10.7294 -19.1592 1.96778e-15 7.15625e-15 10 2.10798e-15 6.36111e-15 10 -1.98785e-16 -1.59028e-15 -1.66482e-15 -19.9818 0.871897 -2.3964 -24 6.36111e-15 7.95139e-15 -20 7.95139e-16 -0 -1.98785e-16 -1.59028e-15 -1.66482e-15 -20 1.59028e-15 -3.97569e-16 -24 -3.97569e-15 4.77083e-15 -20 0 7.95139e-15 -1.98785e-16 -1.59028e-15 -1.66482e-15 -19.9748 -1.02565 2.81938 -24 3.18055e-15 4.77083e-15 -20 -7.95139e-16 7.95139e-15 -1.98785e-16 -1.59028e-15 -1.66482e-15 -19.7815 -3.00948 8.30515 -24 0 5.56597e-15 -20 -7.95139e-16 1.59028e-15 
395.487 87.1343 261.451 29.5645 25.1339 -47.8843 -34.0889 -62.0468 -27.9886 3.23775 33.4319 -24.8079 8.93361 -0.724351 21.7471 12.4759 -68.5429 -7.30433 -4.52177 37.9496 0.564802 -11.5172 -10.6939 15.4342 7.8016 7.33147 -1.57089 1.92794 1.88722 -0.14829 3.187 3.12287 -0.14559 -0.546449 -0.520376 0.0779212 -0.547771 -0.519257 0.0819094 -9.84848 -9.1358 1.50282 -1.60042 -7.7442 -5.18867 69.8544 19.8609 58.928 10.5789 -35.75 6.54845 24.5971 -7.08098 -6.88571 28.184 10.7294 19.1592 -1.82186e-14 -2.5842e-15 -10 -4.42136e-15 -6.75868e-15 -10 3.18055e-15 3.18055e-15 -0 19.9818 0.871897 2.3964 24 -7.95139e-15 -2.22639e-14 20 -4.77083e-15 -2.8625e-14 3.18055e-15 3.18055e-15 -0 20 -3.18055e-15 -9.54166e-15 24 -5.61567e-15 -2.8625e-14 20 -4.77083e-15 -2.54444e-14 3.18055e-15 3.18055e-15 -0 19.9748 -1.02565 -2.81938 24 -2.83268e-15 -2.54444e-14 20 0 -2.22639e-14 3.18055e-15 3.18055e-15 -0 19.7815 -3.00948 -8.30515 24 -4.37326e-15 -1.27222e-14 20 -1.11319e-14 -2.22639e-14 3.05689 -12.8455 -28.967 -63.577 38.4004 -54.6044 18.8246 -48.1469 7.22471 2.44097 11.4892 -4.26036 -28.184 10.7294 -19.1592 -5.60818e-16 3.18055e-15 10 -4.07085e-15 4.77083e-15 10 3.97569e-16 0 -6.08778e-16 -19.9818 0.871897 -2.3964 -24 -7.95139e-16 1.35174e-14 -20 -1.98785e-15 4.77083e-15 3.97569e-16 0 -6.08778e-16 -20 -1.59028e-15 3.18055e-15 -24 1.59028e-15 7.95139e-15 -20 1.98785e-15 3.97569e-15 3.97569e-16 0 -6.08778e-16 -19.9748 -1.02565 2.81938 -24 -1.59028e-15 5.56597e-15 -20 4.37326e-15 3.97569e-15 3.97569e-16 0 -6.08778e-16 -19.7815 -3.00948 8.30515 -24 -1.59028e-15 3.97569e-15 -20 0 4.77083e-15 
